<svg xmlns="http://www.w3.org/2000/svg" version="1.1" xmlns:xlink="http://www.w3.org/1999/xlink" xmlns:svgjs="http://svgjs.dev/svgjs" width="1440" height="560" preserveAspectRatio="none" viewBox="0 0 1440 560"><g mask="url(&quot;#SvgjsMask1004&quot;)" fill="none"><rect width="1440" height="560" x="0" y="0" fill="rgba(52, 88, 219, 1)"></rect><path d="M 0,74 C 57.6,96.2 172.8,195.4 288,185 C 403.2,174.6 460.8,13.6 576,22 C 691.2,30.4 748.8,209.6 864,227 C 979.2,244.4 1036.8,105.2 1152,109 C 1267.2,112.8 1382.4,218.6 1440,246L1440 560L0 560z" fill="rgba(44, 81, 216, 1)"></path><path d="M 0,298 C 96,333.6 288,452.8 480,476 C 672,499.2 768,423.6 960,414 C 1152,404.4 1344,425.2 1440,428L1440 560L0 560z" fill="rgba(52, 88, 219, 1)"></path></g><defs><mask id="SvgjsMask1004"><rect width="1440" height="560" fill="#ffffff"></rect></mask></defs></svg>